<svg width="20" height="23" viewBox="0 0 20 23" fill="none" xmlns="http://www.w3.org/2000/svg">
<path d="M8.23199 8.73099C9.13912 7.82393 10.3602 7.30022 11.6426 7.26821C12.925 7.23619 14.1707 7.69832 15.122 8.55899L15.303 8.73099L18.131 11.56C19.052 12.4827 19.5763 13.7286 19.592 15.0322C19.6077 16.3358 19.1136 17.594 18.215 18.5385C17.3165 19.4831 16.0845 20.0394 14.7818 20.0888C13.479 20.1382 12.2085 19.6768 11.241 18.803L11.061 18.631L8.93898 16.509C8.75964 16.329 8.65551 16.0876 8.64776 15.8336C8.64 15.5797 8.7292 15.3323 8.89723 15.1417C9.06527 14.9511 9.29954 14.8317 9.55246 14.8076C9.80538 14.7835 10.058 14.8566 10.259 15.012L10.353 15.095L12.475 17.217C13.0251 17.7703 13.769 18.0875 14.5491 18.1014C15.3292 18.1152 16.084 17.8247 16.6534 17.2913C17.2228 16.7579 17.562 16.0237 17.5991 15.2444C17.6362 14.4651 17.3682 13.702 16.852 13.117L16.717 12.974L13.889 10.146C13.6104 9.86736 13.2797 9.64634 12.9157 9.49554C12.5516 9.34475 12.1615 9.26713 11.7675 9.26713C11.3735 9.26713 10.9833 9.34475 10.6193 9.49554C10.2553 9.64634 9.92457 9.86736 9.64598 10.146C9.45834 10.3335 9.2039 10.4388 8.93863 10.4387C8.67336 10.4386 8.41899 10.3331 8.23148 10.1455C8.04398 9.95785 7.93869 9.70341 7.93878 9.43814C7.93888 9.17287 8.04434 8.9185 8.23199 8.73099ZM1.86799 2.36699C2.77512 1.45993 3.99618 0.936222 5.27861 0.904208C6.56105 0.872194 7.80673 1.33432 8.75799 2.19499L8.93898 2.36699L11.06 4.48999C11.2393 4.66995 11.3435 4.91143 11.3512 5.16538C11.359 5.41933 11.2698 5.66671 11.1017 5.85727C10.9337 6.04784 10.6994 6.1673 10.4465 6.19139C10.1936 6.21549 9.94098 6.1424 9.73998 5.98699L9.64598 5.90399L7.52498 3.78299C6.97395 3.23555 6.23207 2.92317 5.45542 2.91157C4.67877 2.89996 3.92789 3.19004 3.36075 3.72078C2.79361 4.25152 2.45443 4.98153 2.41456 5.75725C2.37469 6.53297 2.63725 7.29391 3.14698 7.87999L3.28199 8.02399L6.11098 10.853C6.67357 11.4154 7.43649 11.7314 8.23199 11.7314C9.02748 11.7314 9.7904 11.4154 10.353 10.853C10.4458 10.7601 10.5561 10.6864 10.6774 10.6361C10.7987 10.5858 10.9288 10.5598 11.0601 10.5598C11.1915 10.5597 11.3216 10.5856 11.4429 10.6358C11.5643 10.686 11.6746 10.7596 11.7675 10.8525C11.8604 10.9453 11.9341 11.0556 11.9844 11.1769C12.0347 11.2982 12.0606 11.4283 12.0607 11.5596C12.0607 11.691 12.0349 11.8211 11.9847 11.9424C11.9345 12.0638 11.8608 12.1741 11.768 12.267C10.8609 13.1741 9.63979 13.6978 8.35735 13.7298C7.07492 13.7618 5.82925 13.2997 4.87799 12.439L4.69598 12.267L1.86799 9.43799C0.93063 8.50035 0.404053 7.22881 0.404053 5.90299C0.404053 4.57717 0.93063 3.30463 1.86799 2.36699Z" fill="white"/>
</svg>
