<svg width="148" height="51" viewBox="0 0 148 51" fill="none" xmlns="http://www.w3.org/2000/svg">
<g filter="url(#filter0_d_40000292_474)">
<path d="M17 5C10.0964 5 4.5 10.5964 4.5 17.5V33.5C4.5 40.4036 10.0964 46 17 46H131C137.904 46 143.5 40.4036 143.5 33.5V17.5C143.5 10.5964 137.904 5 131 5H17Z" stroke="white" shape-rendering="crispEdges"/>
<path d="M27.232 23.7309C28.1391 22.8239 29.3602 22.3002 30.6426 22.2681C31.925 22.2361 33.1707 22.6983 34.122 23.5589L34.303 23.7309L37.131 26.5599C38.052 27.4826 38.5763 28.7285 38.592 30.0321C38.6077 31.3357 38.1136 32.5939 37.215 33.5385C36.3165 34.4831 35.0845 35.0393 33.7818 35.0887C32.479 35.1381 31.2085 34.6768 30.241 33.8029L30.061 33.6309L27.939 31.5089C27.7596 31.329 27.6555 31.0875 27.6478 30.8335C27.64 30.5796 27.7292 30.3322 27.8972 30.1417C28.0653 29.9511 28.2995 29.8316 28.5525 29.8075C28.8054 29.7834 29.058 29.8565 29.259 30.0119L29.353 30.0949L31.475 32.2169C32.0251 32.7702 32.769 33.0874 33.5491 33.1013C34.3292 33.1152 35.084 32.8246 35.6534 32.2913C36.2228 31.7579 36.562 31.0237 36.5991 30.2444C36.6362 29.4651 36.3682 28.702 35.852 28.1169L35.717 27.9739L32.889 25.1459C32.6104 24.8673 32.2797 24.6463 31.9157 24.4955C31.5516 24.3447 31.1615 24.2671 30.7675 24.2671C30.3735 24.2671 29.9833 24.3447 29.6193 24.4955C29.2553 24.6463 28.9246 24.8673 28.646 25.1459C28.4583 25.3334 28.2039 25.4387 27.9386 25.4386C27.6734 25.4385 27.419 25.3331 27.2315 25.1454C27.044 24.9578 26.9387 24.7033 26.9388 24.4381C26.9389 24.1728 27.0443 23.9184 27.232 23.7309ZM20.868 17.3669C21.7751 16.4599 22.9962 15.9362 24.2786 15.9041C25.561 15.8721 26.8067 16.3343 27.758 17.1949L27.939 17.3669L30.06 19.4899C30.2393 19.6699 30.3435 19.9114 30.3512 20.1653C30.359 20.4193 30.2698 20.6666 30.1017 20.8572C29.9337 21.0478 29.6994 21.1672 29.4465 21.1913C29.1936 21.2154 28.941 21.1423 28.74 20.9869L28.646 20.9039L26.525 18.7829C25.974 18.2355 25.2321 17.9231 24.4554 17.9115C23.6788 17.8999 22.9279 18.19 22.3607 18.7207C21.7936 19.2515 21.4544 19.9815 21.4146 20.7572C21.3747 21.5329 21.6372 22.2938 22.147 22.8799L22.282 23.0239L25.111 25.8529C25.6736 26.4153 26.4365 26.7313 27.232 26.7313C28.0275 26.7313 28.7904 26.4153 29.353 25.8529C29.4458 25.76 29.5561 25.6863 29.6774 25.636C29.7987 25.5857 29.9288 25.5598 30.0601 25.5597C30.1915 25.5597 30.3216 25.5855 30.4429 25.6357C30.5643 25.686 30.6746 25.7596 30.7675 25.8524C30.8604 25.9453 30.9341 26.0555 30.9844 26.1768C31.0347 26.2982 31.0606 26.4282 31.0607 26.5596C31.0607 26.6909 31.0349 26.821 30.9847 26.9424C30.9345 27.0637 30.8608 27.174 30.768 27.2669C29.8609 28.174 28.6398 28.6977 27.3574 28.7297C26.0749 28.7617 24.8292 28.2996 23.878 27.4389L23.696 27.2669L20.868 24.4379C19.9306 23.5003 19.4041 22.2288 19.4041 20.9029C19.4041 19.5771 19.9306 18.3046 20.868 17.3669Z" fill="white"/>
<path d="M80.3425 20.332V31.5H78.1025V24.236L75.1105 31.5H73.4145L70.4065 24.236V31.5H68.1665V20.332H70.7105L74.2625 28.636L77.8145 20.332H80.3425ZM81.9811 27.036C81.9811 26.14 82.1571 25.3453 82.5091 24.652C82.8718 23.9587 83.3571 23.4253 83.9651 23.052C84.5838 22.6787 85.2718 22.492 86.0291 22.492C86.6905 22.492 87.2665 22.6253 87.7571 22.892C88.2585 23.1587 88.6585 23.4947 88.9571 23.9V22.636H91.2131V31.5H88.9571V30.204C88.6691 30.62 88.2691 30.9667 87.7571 31.244C87.2558 31.5107 86.6745 31.644 86.0131 31.644C85.2665 31.644 84.5838 31.452 83.9651 31.068C83.3571 30.684 82.8718 30.1453 82.5091 29.452C82.1571 28.748 81.9811 27.9427 81.9811 27.036ZM88.9571 27.068C88.9571 26.524 88.8505 26.06 88.6371 25.676C88.4238 25.2813 88.1358 24.9827 87.7731 24.78C87.4105 24.5667 87.0211 24.46 86.6051 24.46C86.1891 24.46 85.8051 24.5613 85.4531 24.764C85.1011 24.9667 84.8131 25.2653 84.5891 25.66C84.3758 26.044 84.2691 26.5027 84.2691 27.036C84.2691 27.5693 84.3758 28.0387 84.5891 28.444C84.8131 28.8387 85.1011 29.1427 85.4531 29.356C85.8158 29.5693 86.1998 29.676 86.6051 29.676C87.0211 29.676 87.4105 29.5747 87.7731 29.372C88.1358 29.1587 88.4238 28.86 88.6371 28.476C88.8505 28.0813 88.9571 27.612 88.9571 27.068ZM96.7929 31.644C96.0675 31.644 95.4169 31.516 94.8409 31.26C94.2649 30.9933 93.8062 30.636 93.4649 30.188C93.1342 29.74 92.9529 29.244 92.9209 28.7H95.1769C95.2195 29.0413 95.3849 29.324 95.6729 29.548C95.9715 29.772 96.3395 29.884 96.7769 29.884C97.2035 29.884 97.5342 29.7987 97.7689 29.628C98.0142 29.4573 98.1369 29.2387 98.1369 28.972C98.1369 28.684 97.9875 28.4707 97.6889 28.332C97.4009 28.1827 96.9369 28.0227 96.2969 27.852C95.6355 27.692 95.0915 27.5267 94.6649 27.356C94.2489 27.1853 93.8862 26.924 93.5769 26.572C93.2782 26.22 93.1289 25.7453 93.1289 25.148C93.1289 24.6573 93.2675 24.2093 93.5449 23.804C93.8329 23.3987 94.2382 23.0787 94.7609 22.844C95.2942 22.6093 95.9182 22.492 96.6329 22.492C97.6889 22.492 98.5315 22.7587 99.1609 23.292C99.7902 23.8147 100.137 24.524 100.201 25.42H98.0569C98.0249 25.068 97.8755 24.7907 97.6089 24.588C97.3529 24.3747 97.0062 24.268 96.5689 24.268C96.1635 24.268 95.8489 24.3427 95.6249 24.492C95.4115 24.6413 95.3049 24.8493 95.3049 25.116C95.3049 25.4147 95.4542 25.644 95.7529 25.804C96.0515 25.9533 96.5155 26.108 97.1449 26.268C97.7849 26.428 98.3129 26.5933 98.7289 26.764C99.1449 26.9347 99.5022 27.2013 99.8009 27.564C100.11 27.916 100.27 28.3853 100.281 28.972C100.281 29.484 100.137 29.9427 99.8489 30.348C99.5715 30.7533 99.1662 31.0733 98.6329 31.308C98.1102 31.532 97.4969 31.644 96.7929 31.644ZM110.488 22.636V31.5H108.232V30.38C107.944 30.764 107.565 31.068 107.096 31.292C106.637 31.5053 106.136 31.612 105.592 31.612C104.898 31.612 104.285 31.468 103.752 31.18C103.218 30.8813 102.797 30.4493 102.488 29.884C102.189 29.308 102.04 28.6253 102.04 27.836V22.636H104.28V27.516C104.28 28.22 104.456 28.764 104.808 29.148C105.16 29.5213 105.64 29.708 106.248 29.708C106.866 29.708 107.352 29.5213 107.704 29.148C108.056 28.764 108.232 28.22 108.232 27.516V22.636H110.488ZM117.946 31.5L114.938 27.724V31.5H112.698V19.66H114.938V26.396L117.914 22.636H120.826L116.922 27.084L120.858 31.5H117.946Z" fill="white"/>
</g>
<defs>
<filter id="filter0_d_40000292_474" x="0" y="0.5" width="148" height="50" filterUnits="userSpaceOnUse" color-interpolation-filters="sRGB">
<feFlood flood-opacity="0" result="BackgroundImageFix"/>
<feColorMatrix in="SourceAlpha" type="matrix" values="0 0 0 0 0 0 0 0 0 0 0 0 0 0 0 0 0 0 127 0" result="hardAlpha"/>
<feOffset/>
<feGaussianBlur stdDeviation="2"/>
<feComposite in2="hardAlpha" operator="out"/>
<feColorMatrix type="matrix" values="0 0 0 0 1 0 0 0 0 1 0 0 0 0 1 0 0 0 0.5 0"/>
<feBlend mode="normal" in2="BackgroundImageFix" result="effect1_dropShadow_40000292_474"/>
<feBlend mode="normal" in="SourceGraphic" in2="effect1_dropShadow_40000292_474" result="shape"/>
</filter>
</defs>
</svg>
