<svg width="28" height="28" viewBox="0 0 28 28" fill="none" xmlns="http://www.w3.org/2000/svg">
<path fill-rule="evenodd" clip-rule="evenodd" d="M12.8333 23.3333C12.8333 22.689 13.3556 22.1667 13.9999 22.1667L17.7333 22.1667C18.7326 22.1667 19.4119 22.1658 19.937 22.1229C20.4485 22.0811 20.7101 22.0053 20.8926 21.9123C21.3316 21.6886 21.6886 21.3317 21.9123 20.8926C22.0052 20.7102 22.081 20.4486 22.1228 19.9371C22.1657 19.412 22.1666 18.7327 22.1666 17.7333L22.1666 10.2667C22.1666 9.26732 22.1657 8.58798 22.1228 8.06288C22.081 7.55139 22.0052 7.28982 21.9123 7.10736C21.6886 6.66831 21.3316 6.31136 20.8926 6.08765C20.7101 5.99468 20.4485 5.91893 19.937 5.87714C19.4119 5.83424 18.7326 5.83333 17.7333 5.83333L13.9999 5.83333C13.3556 5.83333 12.8333 5.311 12.8333 4.66667C12.8333 4.02234 13.3556 3.5 13.9999 3.5L17.7815 3.5C18.7206 3.49998 19.4957 3.49997 20.127 3.55156C20.7828 3.60514 21.3856 3.72013 21.9519 4.00864C22.83 4.45605 23.5439 5.16995 23.9913 6.04804C24.2798 6.61427 24.3948 7.21709 24.4484 7.87287C24.4999 8.50427 24.4999 9.27937 24.4999 10.2185V17.7815C24.4999 18.7207 24.4999 19.4957 24.4484 20.1271C24.3948 20.7829 24.2798 21.3857 23.9913 21.952C23.5439 22.83 22.83 23.544 21.9519 23.9914C21.3856 24.2799 20.7828 24.3949 20.127 24.4484C19.4957 24.5 18.7206 24.5 17.7814 24.5H13.9999C13.3556 24.5 12.8333 23.9777 12.8333 23.3333Z" fill="#E50000"/>
<path d="M8.99163 16.675C9.44724 17.1306 9.44724 17.8693 8.99163 18.325C8.53601 18.7806 7.79732 18.7806 7.34171 18.325L3.84171 14.825C3.3861 14.3693 3.3861 13.6306 3.84171 13.175L7.34171 9.67504C7.79732 9.21943 8.53601 9.21943 8.99163 9.67504C9.44724 10.1306 9.44724 10.8693 8.99163 11.325L7.48325 12.8333H17.5C18.1443 12.8333 18.6667 13.3557 18.6667 14C18.6667 14.6443 18.1443 15.1667 17.5 15.1667H7.48325L8.99163 16.675Z" fill="#E50000"/>
</svg>
